<?xml version="1.0" encoding="UTF-8" standalone="no"?>
<!-- Created with Inkscape (http://www.inkscape.org/) -->

<svg
   xmlns:dc="http://purl.org/dc/elements/1.1/"
   xmlns:cc="http://creativecommons.org/ns#"
   xmlns:rdf="http://www.w3.org/1999/02/22-rdf-syntax-ns#"
   xmlns:svg="http://www.w3.org/2000/svg"
   xmlns="http://www.w3.org/2000/svg"
   xmlns:sodipodi="http://sodipodi.sourceforge.net/DTD/sodipodi-0.dtd"
   xmlns:inkscape="http://www.inkscape.org/namespaces/inkscape"
   version="1.0"
   width="910.07184"
   height="273.92813"
   id="svg2"
   xml:space="preserve"
   sodipodi:docname="Logo_Toys_R_Us.svg"
   inkscape:version="0.92.1 r15371"><metadata
     id="metadata13"><rdf:RDF><cc:Work
         rdf:about=""><dc:format>image/svg+xml</dc:format><dc:type
           rdf:resource="http://purl.org/dc/dcmitype/StillImage" /><dc:title></dc:title></cc:Work></rdf:RDF></metadata><sodipodi:namedview
     pagecolor="#ffffff"
     bordercolor="#666666"
     borderopacity="1"
     objecttolerance="10"
     gridtolerance="10"
     guidetolerance="10"
     inkscape:pageopacity="0"
     inkscape:pageshadow="2"
     inkscape:window-width="1920"
     inkscape:window-height="1001"
     id="namedview11"
     showgrid="false"
     fit-margin-top="0"
     fit-margin-left="0"
     fit-margin-right="0"
     fit-margin-bottom="0"
     inkscape:zoom="0.95024539"
     inkscape:cx="438.74241"
     inkscape:cy="147.16103"
     inkscape:window-x="-9"
     inkscape:window-y="-9"
     inkscape:window-maximized="1"
     inkscape:current-layer="svg2" /><defs
     id="defs5" /><path
     d="m 18.973343,106.78807 c 27.07607,0.21652 56.522238,-4.98797 82.401097,-13.411247 7.57574,-2.45925 8.73474,0.62523 9.73511,5.21143 1.08953,4.943977 2.3701,16.119437 2.72093,21.343607 0.34388,5.04586 -1.13469,7.74016 -4.92545,9.00104 l -17.991659,6.02771 c -8.38971,2.85408 -8.60043,5.41522 -8.01457,13.04769 0,0 4.57463,50.99935 4.63831,52.84031 0.29293,7.97057 -2.63061,8.62011 -6.02077,9.3785 -7.19944,1.61171 -11.93269,2.43957 -16.8894,2.96175 -5.726671,0.59976 -7.179759,-1.30604 -8.632847,-7.33259 C 55.096769,202.14192 47.177149,164.98686 44.813999,156.28338 42.150969,146.4788 41.232802,145.92535 33.98936,145.02687 31.52432,144.73393 15.233523,143.02612 14.060632,142.96244 8.1290219,142.64982 5.6385089,141.096 4.0777419,137.66185 2.2298309,133.59089 0.02530487,113.33681 0.02530487,113.33681 -0.42046313,103.07372 4.9889619,106.67344 18.973343,106.78807 M 829.25006,98.722563 c -11.7347,8.040037 -19.11825,18.290387 -19.00478,34.320667 0.14126,19.49454 32.97063,34.059 32.97063,34.059 17.71726,8.82389 9.56839,21.36213 -2.97564,19.0673 -11.04695,-2.01928 -19.74348,-7.16008 -26.9105,-12.30783 -2.56809,-1.84792 -6.90651,-0.5164 -6.98872,4.68924 -0.0452,2.90502 -0.0648,10.77254 -0.0648,10.77254 -0.0127,2.34462 1.5874,4.74019 3.87413,6.97598 5.71509,5.56921 19.17613,16.39269 47.71224,16.39269 20.86426,0 44.11251,-8.65832 46.96659,-35.23768 1.44035,-13.3661 -6.98872,-29.54806 -34.77339,-41.3476 -9.72816,-4.14043 -14.05385,-8.68379 -11.28198,-15.0739 2.62482,-6.0775 12.4734,-7.07788 21.4756,-2.92355 10.1172,4.66262 18.99898,-11.4684 9.81848,-17.48221 C 869.20944,86.986707 844.37495,88.363378 829.2501,98.722563"
     id="rot"
     style="fill:#ed1b2e;fill-opacity:1;fill-rule:nonzero;stroke:none"
     inkscape:connector-curvature="0" /><path
     d="m 213.40812,108.94744 c -6.26854,-8.67685 -17.13718,-14.512357 -29.81552,-16.029127 -17.27264,-2.05169 -35.00263,3.85445 -49.92371,16.634677 -19.06845,16.32901 -29.24817,39.75557 -26.56662,61.14201 1.96833,15.72346 10.46108,28.03245 23.90359,34.67034 32.4415,16.0106 67.46845,-7.58732 80.2811,-30.77768 14.44289,-26.15211 15.13643,-47.62308 2.12116,-65.64022 z m -39.48695,69.77486 c -7.17397,5.26238 -19.9982,3.26858 -27.75224,-6.75946 -7.75984,-10.02805 -8.00762,-23.49024 0,-29.5168 7.10334,-5.35732 20.45091,-2.91196 28.27443,7.06514 8.31444,10.60117 7.68921,23.18457 -0.52219,29.21112"
     id="orange"
     style="fill:#faa61a;fill-opacity:1;fill-rule:nonzero;stroke:none"
     inkscape:connector-curvature="0" /><path
     d="m 720.80676,92.262023 c -2.79539,0.15362 -5.47453,1.59499 -7.84375,5.625 -1.98801,3.363517 -18.7499,32.820377 -19.0625,70.656247 -0.30567,36.39783 37.10434,55.41098 70.78125,33.375 38.58267,-25.249 40.75642,-82.43731 39.09375,-101.5625 -0.43303,-4.969447 -3.34659,-7.593747 -8.125,-7.593747 -1.94864,0 -8.01533,0.36083 -13.5,1.09375 -5.45458,0.71902 -6.99998,4.93363 -7,9.093747 0,4.15433 2.62645,35.73699 -13.59375,58.1875 -16.22017,22.45166 -29.76074,8.17389 -28.875,-4.96875 1.2991,-19.32433 12.2352,-40.0303 14.625,-45.6875 2.10843,-4.98913 0.47342,-9.52722 -2.75,-11.031247 -3.53604,-1.65687 -13.38695,-4.56067 -18.65625,-6.34375 -1.689,-0.57096 -3.41651,-0.93592 -5.09375,-0.84375 z m -408.90625,1.59375 c -2.43942,-0.0703 -4.69969,1.30183 -6.53125,3.90625 -2.52409,3.778027 -18.52065,25.331987 -22.09375,28.906247 -1.47162,1.46582 -3.1371,1.6591 -4.8125,0.1875 L 254.18176,96.824523 c -1.46582,-2.09569 -7.00603,-4.83252 -12.59375,-0.8125 0,0 -15.10686,13.419367 -14.0625,12.374997 -5.25659,5.24964 -3.35744,10.91779 2.3125,17.21875 3.2049,3.56151 13.84448,17.20834 24.34375,29.59375 3.07638,3.63793 -3.76523,14.50079 -18.78125,27.9375 -5.68962,5.08986 -5.20859,9.72631 -1.46875,14.25 3.5233,4.262 8.72855,9.59641 13.4375,11.78125 5.8795,2.72787 11.28335,1.89764 18.0625,-2.9375 15.32863,-10.91379 51.43535,-54.7882 63.40625,-82.71875 2.79734,-6.52326 3.06296,-14.21029 -1.25,-18.28125 -1.52372,-1.43341 -7.00309,-6.706067 -11.125,-9.656247 -1.56265,-1.12064 -3.09885,-1.67659 -4.5625,-1.71875 z"
     id="gruen"
     style="fill:#00ab4e;fill-opacity:1;fill-rule:nonzero;stroke:none"
     inkscape:connector-curvature="0" /><path
     d="m 354.47346,98.722563 c -11.72891,8.040037 -19.11824,18.290387 -18.99783,34.320667 0.13431,19.49454 32.96948,34.059 32.96948,34.059 17.71146,8.82389 9.56259,21.36213 -2.97449,19.0673 -11.0481,-2.01928 -19.75042,-7.16008 -26.91745,-12.30783 -2.56809,-1.84792 -6.89956,-0.5164 -6.98872,4.68924 -0.0452,2.90502 -0.0579,10.77254 -0.0579,10.77254 -0.0185,2.34462 1.58045,4.74019 3.87413,6.97598 5.70815,5.56921 19.17613,16.39269 47.71108,16.39269 20.86542,0 44.10673,-8.65832 46.9608,-35.23768 1.43341,-13.3661 -6.98872,-29.54806 -34.77222,-41.3476 -9.72933,-4.14043 -14.04807,-8.68379 -11.28315,-15.0739 2.63061,-6.0775 12.47456,-7.07788 21.48255,-2.92355 10.11025,4.66262 18.99204,-11.4684 9.81153,-17.48221 C 394.43859,86.986707 369.5983,88.363378 354.47345,98.722563"
     id="pink"
     style="fill:#ec008c;fill-opacity:1;fill-rule:nonzero;stroke:none"
     inkscape:connector-curvature="0" /><path
     d="m 425.84151,85.374995 c 0,0 -20.74385,-26.879237 15.55789,-23.578237 0,0 62.10996,4.089488 63.13002,4.223797 1.01311,0.140099 12.65171,1.420669 21.50802,-11.295879 3.80929,-5.453423 30.77768,-38.124172 36.02154,-44.278087 5.47889,-6.4283233 18.38648,-22.400715 25.28026,5.262379 0,0 9.88679,36.332994 14.66519,51.6871 3.25584,10.429815 5.31332,17.380324 23.52845,24.114315 l 56.27446,23.101207 c 0,0 26.36284,9.39008 0.34388,26.05022 0,0 -53.42039,33.39093 -54.73222,34.30794 -4.58736,3.18521 -10.83159,6.97019 -12.32867,23.44508 -0.62987,6.88683 -4.73325,55.27409 -5.11534,61.42916 -0.4145,6.6321 -4.08369,24.8206 -24.39451,5.32606 0,0 -34.05321,-32.48549 -39.12454,-37.29516 -1.15321,-1.10226 -12.69687,-15.4502 -31.91816,-8.07245 l -56.39603,19.76316 c 0,0 -33.86101,12.16773 -20.2205,-17.23444 13.28968,-28.64378 22.43776,-52.4258 25.40646,-60.09649 3.11575,-8.04698 2.61209,-19.56516 -3.77803,-27.82171 -2.92354,-3.79077 -28.03823,-40.093657 -33.70817,-49.037965"
     id="blau_stern"
     style="fill:#0054a6;fill-opacity:1;fill-rule:nonzero;stroke:none"
     inkscape:connector-curvature="0" /><path
     d="m 592.24426,80.449523 c -1.83259,0.07453 -3.63493,0.858414 -4.9375,2.5625 -4.08369,5.35153 -7.38409,17.114807 -1.625,19.624997 5.0841,2.21727 11.11008,-6.733817 13.875,-12.874997 2.29935,-5.110521 -2.62921,-9.502971 -7.3125,-9.3125 z m -99.46875,0.0625 c -4.4873,0.191624 -8.92212,4.419399 -6.71875,9.3125 2.76492,6.14118 8.80947,15.092257 13.90625,12.874997 5.7533,-2.5102 2.44018,-14.273463 -1.65625,-19.624997 -1.44513,-1.89162 -3.49157,-2.649602 -5.53125,-2.5625 z m 114.875,9.125 c -1.38759,0.12036 -2.68832,0.78501 -3.6875,2.15625 -3.97021,5.44069 -10.00764,14.883977 -5.03125,18.718747 5.56806,4.2759 12.32833,-5.4737 16.4375,-10.812497 3.21121,-4.17093 -2.76307,-10.492353 -7.71875,-10.0625 z m -130.28125,0.03125 c -4.82423,0.0913 -10.20688,6.08531 -7.125,10.09375 4.10917,5.332997 10.86943,15.094187 16.4375,10.812497 4.97524,-3.82897 -1.03669,-13.278057 -5,-18.718747 -1.14337,-1.56713 -2.70442,-2.21793 -4.3125,-2.1875 z m 58.09375,6.5 c -49.21145,0.25443 -59.6041,45.926907 -31.375,63.562497 1.63718,1.02585 0.63153,3.33661 -1.3125,6.96875 -2.43262,4.52946 -9.2932,10.46946 -17.5625,14.75 -5.5229,2.86102 -13.7717,7.67319 -8.34375,15 0,0 6.40152,8.22339 12.9375,11.28125 7.86868,3.68888 13.48476,2.05493 20.21875,-2.46875 3.64487,-2.43957 14.90591,-14.10516 25.125,-26.96875 4.31874,-5.44647 10.61826,-3.15807 10,4.8125 0,0 -1.06353,12.5326 -1.375,15.125 -0.90428,7.46806 2.87366,10.23148 9.53125,10.21875 0,0 10.10581,-0.6305 15.0625,-1.375 7.0084,-1.05827 8.83632,-7.6524 10.21875,-11.78125 9.72817,-28.9564 9.50002,-72.6875 9.5,-72.6875 0.80933,-11.00179 -2.94373,-14.46103 -7.875,-16.53125 -1.77728,-0.73986 -7.60933,-4.28919 -24.84375,-7.812497 -7.21486,-1.47458 -13.86274,-2.125 -19.90625,-2.09375 z m 3.5625,27.562497 c 6.12508,-0.10193 12.0531,0.8398 13.9375,1.53125 1.86644,0.67502 1.20805,17.80082 -1.15625,18.0625 -5.03891,0.56039 -29.67386,3.26352 -29.09375,-11.28125 0.25075,-6.31095 8.4374,-8.18145 16.3125,-8.3125 z"
     id="gelb"
     style="fill:#ffe600;fill-opacity:1;fill-rule:nonzero;stroke:none"
     inkscape:connector-curvature="0" /><path
     d="m 903.91795,102.79931 c -3.25585,0 -6.16086,-2.25547 -6.16086,-6.134227 0,-3.87992 2.90501,-6.13539 6.16086,-6.13539 3.24889,0 6.15391,2.25547 6.15391,6.13539 0,3.878757 -2.90502,6.134227 -6.15391,6.134227 z m 0,-10.843157 c -2.42683,0 -4.38937,1.88612 -4.38937,4.70893 0,2.82166 1.96254,4.720507 4.38937,4.700827 v 0.0197 c 2.37704,0 4.38358,-1.898847 4.38358,-4.720507 0,-2.82281 -2.00654,-4.70893 -4.38358,-4.70893 z m -1.0189,8.00183 h -1.40793 v -6.59969 h 2.46504 c 1.70086,0 2.70818,0.48398 2.70818,1.9938 0,1.21689 -0.71438,1.64992 -1.5874,1.72055 l 1.68929,2.88534 h -1.67539 l -1.52372,-2.77766 h -0.66807 z m 1.2551,-3.89845 c 0.63102,0 1.00037,-0.12736 1.00037,-0.85333 0,-0.68891 -0.72712,-0.73291 -1.26204,-0.73291 h -0.99343 v 1.58624 h 1.2551"
     id="registered"
     style="fill:#231f20;fill-opacity:1;fill-rule:nonzero;stroke:none"
     inkscape:connector-curvature="0" /></svg>